<svg width="98" height="48" viewBox="0 0 98 48" fill="none" xmlns="http://www.w3.org/2000/svg">
<path d="M32.7543 18.6893H20.6207V7.79995H12.5316V18.6893H0.397949V25.9488H12.5316V36.8381H20.6207V25.9488H32.7543V18.6893ZM73.1997 22.319C79.9137 22.319 85.2929 17.4551 85.2929 11.4297C85.2929 5.4043 79.9137 0.540405 73.1997 0.540405C71.9055 0.540405 70.6517 0.721893 69.5192 1.04857C71.8246 3.98869 73.1593 7.54587 73.1593 11.4297C73.1593 15.3136 71.7841 18.8345 69.5192 21.8109C70.6517 22.1376 71.9055 22.319 73.1997 22.319ZM52.977 22.319C59.6909 22.319 65.0702 17.4551 65.0702 11.4297C65.0702 5.4043 59.6909 0.540405 52.977 0.540405C46.2631 0.540405 40.8434 5.4043 40.8434 11.4297C40.8434 17.4551 46.2631 22.319 52.977 22.319ZM79.7519 30.1593C83.1089 32.8091 85.3334 36.1848 85.3334 40.4679V47.7274H97.467V40.4679C97.467 34.8781 87.8814 31.4298 79.7519 30.1593ZM52.977 29.5786C44.8879 29.5786 28.7097 33.2084 28.7097 40.4679V47.7274H77.2443V40.4679C77.2443 33.2084 61.0661 29.5786 52.977 29.5786Z" fill="white"/>
</svg>
