<svg width="15" height="10" viewBox="0 0 15 10" fill="none" xmlns="http://www.w3.org/2000/svg">
<path fill-rule="evenodd" clip-rule="evenodd" d="M0.0893457 5.01064C0.0908273 4.87804 0.144923 4.75145 0.239733 4.65874C0.334543 4.56603 0.462301 4.51477 0.594901 4.51625L12.3872 4.64801L9.27551 1.46705C9.18268 1.37212 9.13136 1.2442 9.13284 1.11143C9.13433 0.978664 9.18849 0.851923 9.28342 0.759091C9.37835 0.666259 9.50627 0.614941 9.63904 0.616424C9.7718 0.617907 9.89854 0.672072 9.99138 0.767001L13.9464 4.81144C13.9925 4.8584 14.0288 4.91399 14.0533 4.97501C14.0779 5.03604 14.0901 5.1013 14.0894 5.16706C14.0886 5.23282 14.0749 5.2978 14.049 5.35826C14.0232 5.41872 13.9856 5.47347 13.9385 5.5194L9.89409 9.47446C9.79916 9.56729 9.67124 9.61861 9.53847 9.61712C9.4057 9.61564 9.27896 9.56148 9.18613 9.46655C9.0933 9.37162 9.04198 9.2437 9.04346 9.11093C9.04495 8.97816 9.09911 8.85142 9.19404 8.75859L12.376 5.64795L0.583728 5.51619C0.451128 5.51471 0.324548 5.46061 0.231833 5.3658C0.139118 5.27099 0.0878642 5.14324 0.0893457 5.01064Z" fill="#7AA9F0"/>
</svg>