<svg width="30" height="24" viewBox="0 0 30 24" fill="none" xmlns="http://www.w3.org/2000/svg">
<path d="M15.009 21.3518C15.009 21.8803 14.7037 22.3604 14.2258 22.5845C14.041 22.6719 13.8431 22.7141 13.6464 22.7141C13.3349 22.7141 13.0263 22.6071 12.777 22.4004L5.32911 16.2287H1.36235C0.610073 16.2293 0 15.6189 0 14.8667V9.43888C0 8.68629 0.610073 8.07621 1.36235 8.07621H5.32943L12.7774 1.90454C13.1843 1.56726 13.7486 1.49536 14.2261 1.72107C14.7037 1.94517 15.0094 2.42562 15.0094 2.95379L15.009 21.3518ZM20.2446 19.223C20.2114 19.2252 20.1795 19.2265 20.1466 19.2265C19.7868 19.2265 19.4398 19.0843 19.1835 18.8276L19.0013 18.6448C18.5234 18.1679 18.4673 17.4124 18.8697 16.87C19.8899 15.4945 20.4284 13.8639 20.4284 12.1533C20.4284 10.3134 19.8171 8.58762 18.6601 7.1624C18.2197 6.62068 18.2603 5.83391 18.7539 5.34056L18.9358 5.15838C19.208 4.88623 19.5726 4.7379 19.9673 4.76144C20.3517 4.78079 20.7106 4.96168 20.9543 5.25962C22.5592 7.22334 23.4069 9.60753 23.4069 12.1536C23.4069 14.5249 22.6572 16.782 21.2384 18.6799C21.0014 18.9963 20.639 19.1949 20.2446 19.223ZM25.8772 23.4332C25.6308 23.7243 25.2745 23.8991 24.8931 23.9152C24.8743 23.9159 24.8553 23.9165 24.836 23.9165C24.4752 23.9165 24.1289 23.774 23.8725 23.5176L23.6935 23.3387C23.1934 22.8389 23.1596 22.0395 23.6142 21.4985C25.8114 18.8853 27.0219 15.5667 27.0219 12.1533C27.0219 8.60277 25.7259 5.18482 23.3737 2.52913C22.8968 1.98999 22.921 1.17387 23.4285 0.664405L23.6071 0.485446C23.8722 0.219103 24.2166 0.0723886 24.6116 0.0849641C24.9866 0.0956049 25.3413 0.261344 25.5905 0.541874C28.4339 3.74315 30 7.86727 30 12.1533C30.0006 16.2771 28.5364 20.2832 25.8772 23.4332Z" fill="#FF6652"/>
</svg>
