<svg width="598" height="598" viewBox="0 0 598 598" fill="none" xmlns="http://www.w3.org/2000/svg">
<path d="M52.6227 332.195C52.2041 326.873 51.8812 321.545 51.624 316.228" stroke="#030303" stroke-width="4.05" stroke-miterlimit="10"/>
<path d="M355.297 523.633H203.393" stroke="#CCDDE2" stroke-width="4.05" stroke-miterlimit="10"/>
<path d="M399.644 143.095C399.644 143.095 444.41 121.956 482.389 163.2C494.797 176.679 503.265 194.565 503.863 213.02C504.134 222.024 502.683 230.997 499.587 239.457C496.436 248.092 490.779 253.809 486.431 261.499C479.764 273.358 493.703 275.457 501.184 281.203C506.156 285.055 510.872 289.226 515.303 293.69C525.288 303.662 534.075 314.766 541.483 326.777C556.154 350.701 564.988 377.742 567.269 405.713C569.523 433.293 567.795 463.241 553.652 487.741C546.847 499.539 536.598 511.111 523.992 516.612C507.248 523.914 488.441 523.639 470.548 523.639H432.474" stroke="#CCDDE2" stroke-width="4.05" stroke-miterlimit="10"/>
<path d="M213.038 418.684C211.537 429.364 209.301 441.617 206.831 453.882L203.919 454.713C194.598 457.331 184.7 457.041 175.55 453.882L179.365 440.917L156.139 373.343C156.139 373.343 173.893 367.603 188.473 363.339L190.147 363.267C198.112 364.947 214.527 371.256 215.042 394.883C215.078 396.02 215.042 397.216 215.042 398.519C217.356 406.144 216.435 412.865 213.038 418.684Z" fill="white"/>
<path d="M158.369 161.46C158.14 160.877 157.692 160.407 157.12 160.152C156.549 159.895 155.901 159.873 155.313 160.091C154.984 160.19 154.68 160.359 154.422 160.587C153.501 161.334 153.292 162.644 153.262 163.888C153.178 166.728 153.017 169.575 152.808 172.403C152.808 172.595 152.778 172.81 152.778 173.001C152.646 175.28 152.742 178.042 151.773 180.028C151.711 180.179 151.604 180.308 151.468 180.399C151.145 180.548 150.804 180.225 150.595 179.932C149.997 179.059 149.399 178.204 148.801 177.313C148.329 176.601 147.796 175.83 146.971 175.603C145.745 175.262 144.579 176.344 143.903 177.444C141.721 181.032 141.511 186.911 144.89 189.919C148.269 192.927 140.704 198.841 135.286 201.329C134.379 201.839 133.428 202.267 132.446 202.608C132.398 202.608 134.401 203.057 134.353 203.075C130.137 204.542 125.746 205.445 121.293 205.76C116.007 206.113 110.852 205.449 107.103 203.152C107.264 202.554 108.544 198.368 108.621 197.77C108.897 195.683 109.094 193.614 109.219 191.515C109.447 187.575 109.429 183.628 109.279 179.699C108.735 165.562 111.253 153.686 117.089 151.874C117.55 151.736 117.992 151.541 118.405 151.294C121.036 149.841 122.441 146.773 121.233 143.879C121.15 143.681 121.054 143.49 120.97 143.281C120.876 143.074 120.767 142.875 120.647 142.683C132.045 139.143 139.783 141.6 147.605 145.882C149.093 147.071 150.492 148.369 151.791 149.763C154.852 153.087 157.104 157.074 158.369 161.412V161.46Z" fill="white"/>
<path d="M432.353 297.379H393.483V204.474C393.483 204.474 386.307 285.198 366.645 330.933H246.262C260.452 321.915 271.832 308.293 279.409 293.63C282.399 287.829 287.183 279.218 295.136 281.479C297.026 282.011 299.807 282.352 301.212 280.624C301.697 279.96 301.972 279.166 302.001 278.345C302.683 269.877 293.904 262.749 286.669 260.501C279.433 258.252 270.977 259.305 265.218 264.561C261.068 268.359 258.467 273.4 255.429 278.07C253.606 280.838 251.444 283.367 248.995 285.599C252.116 266.642 254.897 248.523 255.298 241.855C262.91 235.845 268.501 226.044 270.487 217.373C272.669 207.901 274.595 198.638 277.986 189.769L305.739 189.865C306.784 189.865 307.786 189.45 308.525 188.711C309.264 187.972 309.68 186.97 309.68 185.924V139.83C309.681 138.795 309.272 137.801 308.543 137.065C307.813 136.33 306.822 135.914 305.787 135.908L286.89 135.746C293.757 134.311 300.72 133.381 307.724 132.965C307.868 132.965 307.999 132.965 308.125 132.965C312.735 132.66 320.814 132.529 325.467 132.481C319.923 135.471 316.497 141.822 317.095 147.431C317.2 148.626 317.505 149.794 317.998 150.887C322.734 161.293 335.208 164.366 345.506 161.34C356.963 157.998 365.383 147.461 364.881 135.339C372.057 136.392 379.161 137.727 386.194 139.346C396.88 141.804 407.303 145.117 415.753 152.341C423.12 158.614 429.363 166.693 432.252 175.824C444.654 214.867 440.839 258.438 432.353 297.379Z" fill="#2E2E2E"/>
<path d="M255.609 241.855C254.736 256.123 252.488 270.38 250.048 284.6" stroke="#030303" stroke-width="4.05" stroke-miterlimit="10"/>
<path d="M278.298 189.769C274.901 198.638 272.982 207.901 270.799 217.373C268.796 226.014 263.216 235.845 255.61 241.855C249.223 246.896 241.401 249.27 233.029 246.089C221.799 241.807 217.858 229.429 216.483 218.515C214.695 204.926 214.586 191.168 216.16 177.552C217.744 181.074 224.221 191.791 244.308 188.974C244.847 189.377 245.495 189.609 246.167 189.638L278.298 189.769Z" fill="#2E2E2E"/>
<path d="M267.02 159.11C271.696 157.914 274.542 162.411 273.849 165.831C272.719 171.411 264.693 173.605 259.915 173.707C256.088 173.785 246.759 172.774 242.956 172.332" stroke="#030303" stroke-width="4.05" stroke-miterlimit="10"/>
<path d="M241.383 161.873C247.169 163.545 253.295 163.646 259.132 162.166C264.041 160.904 269.842 158.578 272.413 153.907C273.914 151.192 272.718 146.863 269.585 145.906C265.967 144.812 262.618 148.412 259.341 149.321C257.227 149.897 255.069 150.297 252.889 150.517C252.291 150.582 251.728 150.63 251.148 150.678C248.097 150.923 245.029 150.901 241.981 150.612C241.657 150.612 241.341 150.51 241.078 150.32C240.815 150.13 240.619 149.862 240.516 149.554C240.415 149.247 240.412 148.915 240.51 148.605C240.607 148.296 240.8 148.025 241.06 147.832L241.61 147.431" stroke="#030303" stroke-width="4.05" stroke-miterlimit="10"/>
<path d="M278.297 189.769C274.901 198.638 272.981 207.901 270.798 217.373C267.115 233.274 251.405 253.085 233.029 246.077C221.798 241.795 217.858 229.417 216.482 218.503C214.329 201.604 214.509 184.244 217.678 167.488C220.309 153.686 224.98 139.19 238.411 132.403L244.714 129.252C246.216 128.492 247.957 128.351 249.563 128.858C251.169 129.366 252.513 130.482 253.307 131.967C253.791 132.89 254.047 133.915 254.054 134.957C254.06 135.109 254.048 135.262 254.019 135.411" stroke="#030303" stroke-width="4.05" stroke-miterlimit="10"/>
<path d="M406.317 319.487C409.565 319.387 412.815 319.469 416.053 319.733C418.696 319.948 421.435 320.073 423.952 321.06C426.027 321.885 428.192 323.853 428.085 326.257C427.887 330.969 421.716 330.933 418.331 330.933" stroke="#030303" stroke-width="4.05" stroke-miterlimit="10"/>
<path opacity="0.54" d="M348.239 314.996L376.381 242.896C376.729 241.498 376.754 240.04 376.454 238.631C376.154 237.222 375.536 235.901 374.648 234.768C373.76 233.634 372.625 232.718 371.33 232.089C370.034 231.46 368.612 231.135 367.172 231.139H255.417C252.912 231.144 250.483 231.992 248.518 233.545C246.553 235.098 245.166 237.267 244.582 239.702L213.737 311.785C213.403 313.177 213.388 314.626 213.694 316.024C214.001 317.422 214.62 318.733 215.506 319.856C216.391 320.981 217.521 321.89 218.808 322.515C220.096 323.139 221.509 323.464 222.94 323.464H337.397C339.89 323.462 342.31 322.629 344.274 321.094C346.239 319.56 347.634 317.414 348.239 314.996Z" fill="white"/>
<path d="M348.239 314.996L376.381 242.896C376.729 241.498 376.754 240.04 376.454 238.631C376.154 237.222 375.536 235.901 374.648 234.768C373.76 233.634 372.625 232.718 371.33 232.089C370.034 231.46 368.612 231.135 367.172 231.139H255.417C252.912 231.144 250.483 231.992 248.518 233.545C246.553 235.098 245.166 237.267 244.582 239.702L213.737 311.785C213.403 313.177 213.388 314.626 213.694 316.024C214.001 317.422 214.62 318.733 215.506 319.856C216.391 320.981 217.521 321.89 218.808 322.515C220.096 323.139 221.509 323.464 222.94 323.464H337.397C339.89 323.462 342.31 322.629 344.274 321.094C346.239 319.56 347.634 317.414 348.239 314.996Z" fill="white"/>
<path d="M348.239 314.996L376.381 242.896C376.729 241.498 376.754 240.04 376.454 238.631C376.154 237.222 375.536 235.901 374.648 234.768C373.76 233.634 372.625 232.718 371.33 232.089C370.034 231.46 368.612 231.135 367.172 231.139H255.417C252.912 231.144 250.483 231.992 248.518 233.545C246.553 235.098 245.166 237.267 244.582 239.702L213.737 311.785C213.403 313.177 213.388 314.626 213.694 316.024C214.001 317.422 214.62 318.733 215.506 319.856C216.391 320.981 217.521 321.89 218.808 322.515C220.096 323.139 221.509 323.464 222.94 323.464H337.397C339.89 323.462 342.31 322.629 344.274 321.094C346.239 319.56 347.634 317.414 348.239 314.996Z" stroke="#030303" stroke-width="4.05" stroke-linecap="square" stroke-linejoin="round"/>
<path d="M344.119 312.078L370.084 245.563C370.406 244.275 370.43 242.931 370.154 241.633C369.879 240.335 369.311 239.117 368.494 238.071C367.678 237.026 366.633 236.179 365.44 235.598C364.247 235.016 362.937 234.714 361.61 234.715H258.485C256.17 234.714 253.922 235.493 252.104 236.926C250.285 238.36 249.003 240.363 248.463 242.615L220.064 309.118C219.757 310.401 219.746 311.737 220.03 313.025C220.314 314.314 220.886 315.521 221.703 316.557C222.52 317.592 223.561 318.43 224.748 319.005C225.934 319.581 227.236 319.881 228.555 319.882H334.12C336.419 319.884 338.652 319.117 340.464 317.702C342.276 316.288 343.563 314.308 344.119 312.078Z" fill="white"/>
<path d="M265.924 246.974C267.293 244.923 269.512 243.984 270.923 244.935C272.334 245.886 272.334 248.278 270.971 250.317C270.756 250.631 270.516 250.927 270.253 251.202L280.383 272.592C281.998 271.516 283.774 271.247 285.054 272.096C285.464 272.396 285.804 272.781 286.05 273.224C286.296 273.669 286.441 274.161 286.477 274.667L293.402 272.335L299.454 270.296L301.427 269.65C301.677 268.907 302.023 268.199 302.456 267.545C304.375 264.657 307.515 263.359 309.47 264.675C311.426 265.99 311.45 269.309 309.584 272.174L321.125 287.931C323.643 285.868 326.603 285.228 328.654 286.591C331.447 288.451 331.489 293.301 328.75 297.415C328.636 297.583 328.51 297.714 328.397 297.87L336.075 308.371L336.147 308.472C336.54 309.065 336.681 309.789 336.539 310.485C336.398 311.182 335.986 311.794 335.393 312.186C334.801 312.579 334.077 312.72 333.381 312.578C332.685 312.437 332.073 312.025 331.68 311.432L324.863 301.141C322.704 302.391 320.408 302.63 318.727 301.512C316.06 299.718 315.929 295.245 318.309 291.256L307.264 274.584C305.631 275.69 303.831 275.971 302.539 275.116C301.822 274.606 301.333 273.836 301.176 272.969L300.351 273.196L294.197 274.877L286.316 277.006C286.07 277.95 285.666 278.846 285.12 279.655C283.2 282.537 280.061 283.841 278.105 282.525C276.15 281.209 276.12 277.831 278.039 274.942C278.321 274.518 278.637 274.118 278.984 273.746L269.338 251.955C268.178 252.751 266.893 252.954 265.972 252.338C264.584 251.417 264.56 249.001 265.924 246.974Z" fill="#D4EBF5"/>
<path d="M339.304 248.122H354.254C354.937 248.121 355.606 247.922 356.178 247.548C356.75 247.174 357.201 246.643 357.477 246.017C357.559 245.828 357.604 245.625 357.608 245.419C357.607 245.011 357.444 244.62 357.155 244.332C356.866 244.044 356.474 243.882 356.066 243.882H340.177C340.924 245.132 340.548 246.884 339.304 248.122Z" fill="#D4EBF5"/>
<path d="M329.641 246.591C329.642 246.997 329.805 247.387 330.093 247.674C330.381 247.961 330.771 248.122 331.177 248.122H339.304C340.548 246.884 340.925 245.132 340.177 243.87H333.001C332.318 243.87 331.651 244.068 331.078 244.441C330.506 244.813 330.054 245.344 329.778 245.969C329.69 246.165 329.644 246.377 329.641 246.591Z" fill="white"/>
<path d="M333.378 248.122C333.422 248.204 333.471 248.282 333.528 248.355C334.592 249.815 336.906 249.952 338.7 248.642C338.913 248.485 339.113 248.311 339.298 248.122C340.542 246.884 340.919 245.132 340.171 243.87C340.132 243.788 340.084 243.71 340.028 243.637C338.969 242.172 336.655 242.047 334.861 243.344C334.649 243.504 334.449 243.68 334.263 243.87C333.019 245.114 332.643 246.854 333.378 248.122Z" fill="white"/>
<path d="M325.91 255.974C325.913 256.381 326.077 256.77 326.366 257.057C326.655 257.344 327.046 257.505 327.453 257.505H343.139C342.379 256.237 342.756 254.515 344 253.253H329.247C328.563 253.254 327.893 253.453 327.32 253.827C326.747 254.2 326.294 254.732 326.018 255.358C325.943 255.555 325.906 255.763 325.91 255.974Z" fill="white"/>
<path d="M343.116 257.505H350.495C351.177 257.505 351.844 257.307 352.417 256.935C352.989 256.564 353.441 256.035 353.719 255.412C353.803 255.223 353.85 255.02 353.856 254.814C353.857 254.612 353.817 254.411 353.741 254.225C353.664 254.038 353.551 253.868 353.408 253.725C353.265 253.582 353.095 253.469 352.908 253.392C352.721 253.315 352.521 253.276 352.319 253.277H343.977C342.733 254.497 342.357 256.237 343.116 257.505Z" fill="#D4EBF5"/>
<path d="M343.114 257.505C343.148 257.587 343.192 257.666 343.245 257.738C344.304 259.203 346.618 259.335 348.412 258.031C348.624 257.871 348.824 257.694 349.01 257.505C350.242 256.261 350.619 254.515 349.883 253.253C349.839 253.172 349.792 253.095 349.739 253.02C348.669 251.561 346.355 251.429 344.561 252.739C344.348 252.894 344.148 253.066 343.963 253.253C342.731 254.497 342.354 256.237 343.114 257.505Z" fill="white"/>
<path d="M337.87 266.822H347.259C347.942 266.82 348.611 266.622 349.184 266.249C349.757 265.877 350.21 265.347 350.488 264.723C350.57 264.534 350.615 264.33 350.619 264.125C350.619 263.715 350.457 263.322 350.168 263.031C349.879 262.741 349.486 262.577 349.077 262.576H338.761C339.503 263.838 339.12 265.578 337.87 266.822Z" fill="white"/>
<path d="M322.668 265.297C322.669 265.498 322.709 265.697 322.787 265.882C322.865 266.068 322.978 266.236 323.121 266.378C323.264 266.519 323.433 266.631 323.619 266.707C323.805 266.784 324.004 266.823 324.205 266.822H337.869C339.101 265.578 339.484 263.832 338.742 262.564H326.029C325.344 262.563 324.674 262.763 324.102 263.138C323.529 263.513 323.078 264.047 322.805 264.675C322.718 264.87 322.67 265.083 322.668 265.297Z" fill="#D4EBF5"/>
<path d="M331.961 266.822C332.004 266.904 332.054 266.981 332.11 267.055C333.169 268.52 335.477 268.646 337.277 267.342C337.489 267.184 337.689 267.011 337.875 266.822C339.107 265.578 339.49 263.832 338.748 262.564C338.709 262.481 338.661 262.403 338.604 262.331C337.534 260.878 335.226 260.752 333.426 262.05C333.214 262.207 333.014 262.379 332.828 262.564C331.596 263.808 331.213 265.56 331.961 266.822Z" fill="white"/>
<path d="M277.18 310.763H286.574C287.257 310.761 287.925 310.562 288.496 310.19C289.068 309.818 289.52 309.287 289.797 308.664C289.879 308.475 289.924 308.271 289.929 308.066C289.929 307.657 289.766 307.264 289.477 306.975C289.187 306.685 288.795 306.523 288.386 306.523H278.071C278.794 307.779 278.412 309.519 277.18 310.763Z" fill="white"/>
<path d="M239.9 309.238C239.901 309.439 239.942 309.637 240.019 309.823C240.097 310.009 240.21 310.177 240.353 310.318C240.495 310.46 240.665 310.572 240.851 310.648C241.037 310.724 241.236 310.763 241.437 310.763H277.18C278.412 309.519 278.794 307.773 278.053 306.511H243.261C242.577 306.51 241.908 306.709 241.336 307.083C240.763 307.457 240.312 307.989 240.038 308.616C239.952 308.812 239.906 309.023 239.9 309.238Z" fill="#D4EBF5"/>
<path d="M271.253 310.763C271.296 310.844 271.347 310.922 271.403 310.996C272.461 312.461 274.77 312.586 276.57 311.289C276.781 311.127 276.98 310.952 277.168 310.763C278.399 309.519 278.782 307.773 278.041 306.511C278.001 306.428 277.953 306.349 277.897 306.278C276.827 304.818 274.518 304.693 272.718 305.991C272.505 306.148 272.305 306.322 272.12 306.511C270.894 307.749 270.506 309.501 271.253 310.763Z" fill="white"/>
<path d="M40.7717 333.792C40.7717 333.792 21.0376 422.936 71.802 441.557C122.566 460.179 259.694 442.687 202.704 378.367C145.715 314.046 40.7717 333.792 40.7717 333.792Z" fill="#2E2E2E"/>
<path d="M287.087 135.746C293.987 134.307 300.981 133.374 308.017 132.953C308.166 132.953 308.292 132.953 308.424 132.953C313.046 132.648 321.143 132.517 325.766 132.469" stroke="#030303" stroke-width="4.05" stroke-miterlimit="10"/>
<path d="M252.888 150.499C252.84 150.529 252.811 150.564 252.763 150.594" stroke="#030303" stroke-width="4.05" stroke-miterlimit="10"/>
<path d="M331.562 113.022C328.034 114.876 323.98 113.62 322.425 110.463" stroke="#030303" stroke-width="4.05" stroke-miterlimit="10"/>
<path d="M311.081 67.9627C310.922 70.7063 311.625 73.4308 313.094 75.7534C314.562 78.0767 316.721 79.8814 319.267 80.9154C319.806 79.9269 320.578 79.0855 321.516 78.4636C325.481 75.8982 324.775 82.7512 335.539 80.9453C350.459 78.4277 354.262 83.6243 354.262 83.6243C354.591 84.0788 353.664 87.0449 353.533 87.5891C352.935 90.7764 352.337 93.9458 351.793 97.1571C351.441 99.1023 351.087 101.036 350.728 102.958C351 102.695 351.287 102.449 351.589 102.222C354.041 98.3949 357.635 94.1013 361.552 97.6056C362.338 98.3351 362.94 99.2411 363.31 100.249C365.104 105.122 361.671 108.256 357.659 110.134C356.6 110.774 355.476 111.297 354.304 111.694C354.501 112.926 355.321 117.836 355.321 117.848C355.404 118.35 365.367 112.209 366.198 111.461C367.7 109.475 368.858 107.252 369.625 104.883C372.723 95.1119 372.196 82.4821 365.959 74.445C364.41 72.4537 365.445 71.3055 365.893 69.368C365.915 69.2633 365.905 69.1551 365.864 69.057C365.823 68.9584 365.754 68.8746 365.665 68.816C365.576 68.7574 365.472 68.7269 365.365 68.7281C365.259 68.7299 365.155 68.7628 365.068 68.8238C361.707 70.9347 355.626 68.776 355.626 68.776C335.892 56.9234 325.779 64.2551 320.942 64.6259C318.98 64.7604 317.032 64.2061 315.434 63.0591C315.153 63.614 314.726 64.0817 314.2 64.4124C313.673 64.7431 313.066 64.9243 312.444 64.9368L312.253 65.9654C312.106 66.747 311.692 67.4532 311.081 67.9627Z" fill="white"/>
<path d="M319.279 80.9393C316.732 79.906 314.573 78.1012 313.105 75.778C311.637 73.4547 310.933 70.7302 311.093 67.9866C311.151 66.9329 311.302 65.8864 311.547 64.8591L311.72 64.895C311.955 64.9482 312.197 64.9661 312.438 64.9488C313.059 64.9368 313.666 64.7556 314.193 64.4249C314.72 64.0942 315.147 63.626 315.428 63.0711C315.592 62.7625 315.708 62.4294 315.769 62.0844L316.69 57.0792C316.69 57.0792 319.68 61.1276 324.464 60.7508C329.248 60.3741 339.36 53.0427 359.148 64.9009C359.148 64.9009 363.896 66.6531 367.257 64.5421C367.344 64.4817 367.447 64.4483 367.554 64.4471C367.66 64.4459 367.764 64.4764 367.853 64.535C367.942 64.5936 368.011 64.6773 368.052 64.7754C368.093 64.874 368.103 64.9823 368.082 65.0863C367.633 67.0179 367.932 68.5786 369.481 70.57C375.718 78.6071 376.245 91.2369 373.147 101.008C371.791 105.058 369.382 108.673 366.168 111.485C365.337 112.233 355.374 118.374 355.291 117.872C355.291 117.872 354.471 112.95 354.274 111.718L354.226 111.437L354.507 111.354C355.573 111.024 356.615 110.625 357.629 110.158C361.641 108.28 365.092 105.146 363.28 100.273C362.91 99.2656 362.308 98.3596 361.522 97.6295C357.605 94.1252 354.011 98.4188 351.559 102.246C351.085 102.973 350.696 103.751 350.399 104.566C350.495 104.04 350.59 103.526 350.692 103C351.051 101.074 351.406 99.1406 351.757 97.1989C352.355 94.0056 352.911 90.8362 353.497 87.6309C353.604 87.0867 354.555 84.1207 354.226 83.6662C354.226 83.6662 350.423 78.4696 335.503 80.9871C324.739 82.7811 325.445 75.94 321.48 78.5054C320.542 79.1274 319.77 79.9693 319.231 80.9572C319.064 81.2796 318.917 81.6108 318.789 81.9499C318.767 81.9924 318.749 82.0366 318.735 82.0815C318.466 82.823 318.221 83.5705 317.982 84.3001C315.745 91.4103 314.268 99.0886 315.057 106.558C316.02 115.611 322.616 126.256 333.111 125.353C336.413 124.966 339.634 124.062 342.655 122.674" stroke="#030303" stroke-width="4.05" stroke-miterlimit="10"/>
<path d="M320.424 100.236C321.45 100.207 322.254 99.1771 322.219 97.9357C322.184 96.6942 321.324 95.7117 320.297 95.741C319.27 95.7697 318.466 96.7995 318.501 98.0409C318.536 99.2824 319.397 100.265 320.424 100.236Z" fill="#030303"/>
<path d="M334.476 104.011C335.503 103.981 336.307 102.952 336.272 101.711C336.237 100.469 335.376 99.4862 334.35 99.5155C333.323 99.5448 332.519 100.575 332.554 101.815C332.589 103.057 333.45 104.04 334.476 104.011Z" fill="#030303"/>
<path d="M328.409 104.841C328.409 104.841 322.973 106.037 323.523 103.251C323.691 102.378 325.054 93.8023 325.054 93.8023C325.054 93.8023 322.519 88.6953 315.887 89.8854" stroke="#030303" stroke-width="4.05" stroke-miterlimit="10"/>
<path d="M330.851 93.0369C330.851 93.0369 339.468 91.5718 342.769 98.4548" stroke="#030303" stroke-width="4.05" stroke-miterlimit="10"/>
<path d="M325.861 132.397C319.073 135.985 315.449 144.62 318.29 150.869C323.026 161.281 335.494 164.342 345.798 161.334C357.256 157.986 365.675 147.425 365.173 135.315" stroke="#030303" stroke-width="4.05" stroke-miterlimit="10"/>
<path d="M366.955 330.927C386.635 285.192 393.781 204.468 393.781 204.468V317.095C393.781 318.912 394.138 320.711 394.833 322.39C395.528 324.068 396.547 325.593 397.831 326.878C399.116 328.162 400.641 329.181 402.319 329.876C403.998 330.571 405.796 330.928 407.613 330.927H451.267C452.904 330.953 454.492 330.373 455.727 329.299C456.963 328.225 457.757 326.733 457.959 325.109C458.047 324.214 457.946 323.31 457.663 322.457C457.381 321.604 456.922 320.819 456.318 320.154C455.713 319.489 454.976 318.957 454.153 318.594C453.331 318.231 452.442 318.044 451.542 318.046H433.662C432.949 318.044 432.246 317.879 431.607 317.564C430.967 317.249 430.408 316.792 429.972 316.228C429.535 315.663 429.234 315.007 429.09 314.309C428.946 313.61 428.964 312.889 429.141 312.198C439.905 269.74 446.561 219.903 432.55 175.8C429.655 166.698 423.418 158.59 416.051 152.323C407.595 145.099 397.172 141.786 386.492 139.334C379.447 137.719 372.341 136.383 365.173 135.327C365.152 135.335 365.129 135.335 365.107 135.327C365.059 135.327 365.012 135.327 364.982 135.327H364.934H364.868H364.772" stroke="#030303" stroke-width="4.05" stroke-miterlimit="10"/>
<path d="M360.665 115.007L359.876 129.294C359.8 130.69 360.238 132.065 361.108 133.16C361.977 134.255 363.217 134.994 364.594 135.238H364.773C364.804 135.229 364.838 135.229 364.869 135.238H364.899H364.982" stroke="#030303" stroke-width="4.05" stroke-miterlimit="10"/>
<path d="M365.108 135.303H364.982H364.935H364.899H364.869H364.773H364.594C363.217 135.06 361.977 134.321 361.108 133.226C360.238 132.13 359.8 130.755 359.876 129.359L360.665 115.073" stroke="#030303" stroke-width="4.05" stroke-miterlimit="10"/>
<path d="M326.991 124.462C326.602 124.306 326.991 140.416 317.381 147.413" stroke="#030303" stroke-width="4.05" stroke-miterlimit="10"/>
<path d="M198.333 330.933H167.548" stroke="#030303" stroke-width="4.05" stroke-miterlimit="10"/>
<path d="M499.084 330.933H246.262" stroke="#030303" stroke-width="4.05" stroke-miterlimit="10"/>
<path d="M109.284 179.681C109.581 185.713 109.365 191.758 108.638 197.753C107.705 204.797 101.193 213.749 99.782 220.716C97.7667 230.738 100.817 241.096 105.003 250.401C110.062 261.649 118.033 272.963 117.256 285.844C116.857 291.454 115.188 296.9 112.374 301.769C109.56 306.638 105.675 310.804 101.014 313.95C94.6284 318.222 87.3352 320.945 79.7131 321.903C78.6487 322.029 77.5663 322.131 76.4839 322.161C75.8859 322.161 75.2879 322.095 74.6899 322.047C54.4176 320.331 33.6251 304.866 33.6729 283.338C33.6729 269.584 44.126 258.82 45.8901 245.473C46.9725 237.31 44.5805 228.831 46.7931 220.907C50.3811 208.254 64.2488 201.353 70.3245 189.704C74.7976 181.104 75.5271 171.07 79.0673 162.052C83.9948 149.494 91.8645 135.142 102.628 133.946C105.752 134.3 108.771 135.285 111.503 136.84C118.176 140.428 119.875 140.656 121.232 143.855C122.62 147.198 120.551 150.768 117.094 151.838C111.258 153.686 108.74 165.544 109.284 179.681Z" fill="white"/>
<path d="M115.15 138.784C132.672 133.707 143.807 141.176 151.772 149.787C159.737 158.398 159.367 168.175 159.367 168.175" stroke="#030303" stroke-width="4.05" stroke-miterlimit="10"/>
<path d="M169.497 307.205C169.233 320.893 167.498 334.514 164.324 347.833" stroke="#030303" stroke-width="4.05" stroke-miterlimit="10"/>
<path d="M213.037 418.684C206.62 429.723 191.401 437.563 172.78 442.442C139.734 451.101 95.9844 450.426 71.8133 441.551C21.0193 422.935 40.7652 333.792 40.7652 333.792C40.7652 333.792 128.617 317.257 187.197 363.692C192.794 368.115 197.989 373.024 202.721 378.361C209.198 385.686 213.175 392.39 215.052 398.513C217.355 406.144 216.434 412.865 213.037 418.684Z" stroke="#030303" stroke-width="4.05" stroke-miterlimit="10"/>
<path d="M179.364 440.935C179.364 440.935 148.585 526.372 200.294 548.193C252.003 570.014 10.4049 572.92 63.7346 548.193C117.064 523.465 86.4107 446.156 86.4107 446.156" stroke="#030303" stroke-width="4.05" stroke-miterlimit="10"/>
<path d="M241.974 150.594C241.335 148.639 241.598 141.84 241.807 138.001C241.847 137.276 242.168 136.595 242.702 136.102C243.235 135.61 243.939 135.345 244.665 135.363L306.098 135.902C307.134 135.911 308.124 136.329 308.853 137.065C309.582 137.801 309.991 138.795 309.991 139.83V185.93C309.991 186.447 309.889 186.96 309.69 187.438C309.492 187.916 309.2 188.35 308.834 188.714C308.467 189.08 308.032 189.369 307.553 189.565C307.075 189.762 306.561 189.861 306.044 189.859L246.178 189.638C245.311 189.602 244.491 189.232 243.89 188.606C243.289 187.98 242.955 187.145 242.955 186.277V182.761C247.213 184.746 255.262 185.356 255.262 185.356C258.126 185.278 262.653 184.932 265.135 183.508C267.407 182.205 270.278 180.333 270.666 177.498C270.817 176.402 270.527 175.291 269.86 174.408C269.193 173.525 268.204 172.942 267.108 172.786C266.45 172.655 265.769 172.702 265.135 172.924" stroke="#030303" stroke-width="4.05" stroke-miterlimit="10"/>
<path d="M301.93 278.345C301.902 279.167 301.624 279.962 301.134 280.623C299.729 282.352 296.948 282.011 295.059 281.479C287.111 279.218 282.339 287.829 279.337 293.63C271.755 308.293 260.381 321.915 246.19 330.933C245.269 331.531 244.33 332.093 243.38 332.644C229.512 340.645 211.542 339.156 198.129 330.85L215.28 288.72L216.978 290.078C227.335 298.253 240.085 293.666 248.911 285.599C251.361 283.367 253.523 280.838 255.346 278.07C258.383 273.4 260.985 268.359 265.141 264.561C270.894 259.305 279.313 258.276 286.585 260.501C293.857 262.725 302.588 269.877 301.93 278.345Z" fill="white"/>
<path d="M301.858 275.361C301.858 275.361 299.908 265.04 282.333 273.095" stroke="#030303" stroke-width="4.05" stroke-miterlimit="10"/>
<path d="M292.081 262.971C292.081 262.971 281.126 259.466 275.026 267.838" stroke="#030303" stroke-width="4.05" stroke-miterlimit="10"/>
<path d="M70.9352 322.065C73.8606 322.326 76.8045 322.277 79.7198 321.921C87.3401 320.95 94.6303 318.222 101.015 313.95C105.676 310.803 109.561 306.638 112.375 301.769C115.189 296.899 116.858 291.454 117.256 285.844C118.034 272.957 110.08 261.643 105.003 250.395C100.817 241.084 97.7674 230.726 99.7887 220.716C101.194 213.743 107.694 204.797 108.633 197.747C109.363 191.752 109.583 185.707 109.291 179.675C108.747 165.532 111.258 153.662 117.095 151.856C120.551 150.786 122.626 147.21 121.233 143.873C119.899 140.668 118.183 140.476 111.504 136.846C94.0897 127.374 81.9802 145.033 75.2946 162.058C71.7485 171.082 71.0309 181.104 66.5518 189.704C60.4762 201.359 46.5787 208.242 43.0266 220.919C40.808 228.837 43.2 237.322 42.1236 245.473C40.3655 258.814 29.9304 269.572 29.9005 283.338C29.8526 304.86 50.669 320.337 70.9352 322.065Z" stroke="#030303" stroke-width="4.05" stroke-miterlimit="10"/>
<path d="M213.037 418.684C211.536 429.364 209.3 441.617 206.836 453.882C199.851 488.644 190.965 523.615 190.965 523.615" stroke="#030303" stroke-width="4.05" stroke-miterlimit="10"/>
<path d="M215.03 398.513C215.06 397.21 215.078 396.014 215.03 394.877C214.498 370.359 196.869 364.499 189.286 363.094C188.155 362.872 187.01 362.726 185.859 362.657" stroke="#030303" stroke-width="4.05" stroke-miterlimit="10"/>
<path d="M193.597 513.012C194.573 512.415 195.69 512.088 196.835 512.066C197.979 512.044 199.108 512.328 200.106 512.888C201.104 513.448 201.935 514.264 202.512 515.252C203.09 516.24 203.394 517.364 203.392 518.508C203.392 518.592 203.392 518.693 203.392 518.813C203.297 521.766 202.519 524.656 201.119 527.259C199.72 529.861 197.737 532.103 195.325 533.811L187.013 539.725" stroke="#030303" stroke-width="4.05" stroke-miterlimit="10"/>
<path d="M99.1719 228.621C100.332 228.149 101.516 227.73 102.712 227.342C105.23 222.689 104.841 212.505 104.602 208.804L107.119 203.129C114.068 207.398 123.265 205.796 131.799 202.824C132.997 202.405 134.163 201.897 135.285 201.305C140.703 198.817 148.298 192.933 144.889 189.895C141.48 186.857 141.72 181.009 143.902 177.421C144.566 176.32 145.744 175.238 146.97 175.579C147.795 175.806 148.327 176.577 148.8 177.289C149.398 178.18 149.996 179.035 150.594 179.908C150.803 180.201 151.144 180.506 151.467 180.375C151.603 180.285 151.71 180.156 151.772 180.004C152.824 177.839 152.627 174.736 152.806 172.362C153.016 169.533 153.177 166.687 153.261 163.846C153.309 162.279 153.632 160.599 155.312 160.049C155.651 159.918 156.016 159.866 156.378 159.897C156.74 159.929 157.091 160.042 157.402 160.228C157.714 160.415 157.979 160.671 158.178 160.975C158.376 161.28 158.502 161.626 158.547 161.986C159.77 168.859 159.95 175.877 159.08 182.803C158.254 190.056 156.765 197.753 152.113 203.601C149.462 206.975 145.91 209.529 141.869 210.968C137.958 212.326 138.084 217.044 138.084 221.182V228.053C150.11 230.493 161.406 233.435 170.746 241.807C176.924 247.455 182.736 253.489 188.148 259.873C205.185 279.864 208.869 283.613 217.074 290.078C227.431 298.253 240.186 293.666 249.007 285.599C251.452 283.367 253.61 280.837 255.429 278.07C258.467 273.4 261.068 268.359 265.219 264.561C270.977 259.305 279.397 258.276 286.669 260.501C293.94 262.725 302.683 269.877 301.99 278.345C301.96 279.167 301.685 279.96 301.2 280.623C299.795 282.352 297.014 282.011 295.124 281.479C287.171 279.218 282.405 287.829 279.397 293.63C271.82 308.293 260.441 321.915 246.25 330.933C245.329 331.531 244.396 332.093 243.439 332.644C227.586 341.793 206.333 338.528 192.699 326.873L159.809 298.952" stroke="#030303" stroke-width="4.05" stroke-miterlimit="10"/>
<path d="M102.714 227.342C102.714 227.342 118.423 222.486 138.086 228.071" stroke="#030303" stroke-width="4.05" stroke-miterlimit="10"/>
<path d="M242.956 182.761C242.956 182.761 243.076 203.093 247.925 210.921" stroke="#030303" stroke-width="4.05" stroke-miterlimit="10"/>
<path d="M258.893 89.7C255.162 96.0687 255.335 100.59 256.304 107.927C256.384 108.552 256.286 109.186 256.021 109.758C255.756 110.33 255.335 110.815 254.806 111.157C254.277 111.5 253.662 111.686 253.032 111.694C252.402 111.702 251.783 111.532 251.245 111.204C229.717 98.8135 209.57 108.615 183.868 102.545C174.432 100.326 162.669 95.7398 154.602 88.3545C151.926 84.3796 150.498 79.6966 150.5 74.9054C150.5 54.8184 177.942 38.5289 211.777 38.5289C233.467 38.5289 252.519 45.2205 263.414 55.3028C263.414 55.3028 263.414 55.3028 263.444 55.3387C266.178 59.2688 267.67 63.9292 267.726 68.7161C267.726 75.946 262.368 83.72 258.893 89.7Z" fill="#D4EBF5"/>
<path d="M267.63 68.7281V69.2364C267.504 76.2749 263.982 82.817 259.802 88.4801C257.004 92.2714 253.685 96.4753 254.474 101.122C254.821 103.167 255.963 105.027 256.268 107.102C256.573 109.177 255.461 111.718 253.386 111.826C252.07 111.892 250.946 110.953 249.905 110.146C243.728 105.362 235.703 103.568 227.899 103.257C220.095 102.946 212.303 103.968 204.493 104.19C193.239 104.512 181.805 103.107 171.406 98.8075C162.059 94.9086 153.538 88.5698 147.928 80.132C142.421 71.8138 145.68 59.746 151.552 52.5162C157.066 45.7349 165.043 41.3934 173.23 38.3376C195.242 30.1151 220.37 30.3125 242.083 39.3124C248.53 41.9555 254.749 45.4479 259.593 50.483C264.317 55.3926 267.588 61.9348 267.63 68.7281Z" stroke="#030303" stroke-width="4.05" stroke-miterlimit="10"/>
<path d="M177.295 76.7294C181.964 76.7294 185.75 72.9441 185.75 68.2737C185.75 63.6039 181.964 59.818 177.295 59.818C172.625 59.818 168.839 63.6039 168.839 68.2737C168.839 72.9441 172.625 76.7294 177.295 76.7294Z" fill="white"/>
<path d="M204.635 76.7294C209.305 76.7294 213.091 72.9441 213.091 68.2737C213.091 63.6039 209.305 59.818 204.635 59.818C199.965 59.818 196.18 63.6039 196.18 68.2737C196.18 72.9441 199.965 76.7294 204.635 76.7294Z" fill="white"/>
<path d="M232.509 76.7294C237.179 76.7294 240.965 72.9441 240.965 68.2737C240.965 63.6039 237.179 59.818 232.509 59.818C227.84 59.818 224.054 63.6039 224.054 68.2737C224.054 72.9441 227.84 76.7294 232.509 76.7294Z" fill="white"/>
<g opacity="0.54">
<path opacity="0.54" d="M394.99 422.786L391.551 472.42C389.979 475.416 388.014 478.189 385.709 480.666C385.457 480.577 385.206 480.481 384.961 480.367C384.501 480.212 384.046 480.026 383.616 479.847C376.649 476.791 371.357 471.098 369.814 464.646C368.42 458.995 369.676 452.889 366.985 447.579C363.702 441.037 354.774 436.935 353.68 429.555C352.651 422.648 358.87 416.316 357.866 409.546C356.67 401.892 347.311 397.353 345.559 389.878C344.465 385.232 345.445 379.897 345.033 375.113C344.578 369.762 343.68 364.457 342.348 359.254C356.203 358.25 370.304 365.886 374.795 376.824C378.461 385.794 376.254 396.241 381.971 404.397C385.093 408.817 390.289 412.124 392.98 416.746C393.811 418.189 394.416 419.749 394.774 421.375C394.774 421.488 394.774 421.602 394.816 421.692C394.816 421.877 394.864 422.009 394.888 422.146C394.948 422.559 394.99 422.786 394.99 422.786Z" fill="white"/>
<path opacity="0.54" d="M395.015 422.744C395.015 422.744 394.973 422.541 394.925 422.146C394.966 422.303 394.996 422.463 395.015 422.624C395.023 422.643 395.028 422.663 395.028 422.684C395.028 422.705 395.023 422.725 395.015 422.744Z" fill="white"/>
</g>
<path d="M440.793 403.375C438.999 409.821 429.173 413.738 427.989 420.346C426.943 426.207 433.413 431.672 432.343 437.622C431.201 444.003 421.902 447.531 418.487 453.17C415.707 457.751 417.004 463.019 415.569 467.893C413.907 473.431 408.393 478.376 401.121 480.995C400.667 481.157 400.236 481.312 399.776 481.45C399.525 481.522 399.25 481.611 398.998 481.677C396.606 479.698 393.826 476.211 391.571 472.45L394.992 422.786C397.659 420.526 400.709 418.457 402.832 415.945C405.134 413.236 406.204 410.276 406.886 407.172H406.958V406.831C407.956 401.934 408.046 396.803 410.348 392.157C415.019 382.702 429.676 376.112 444.1 376.979C442.738 381.445 441.807 386.031 441.319 390.673C440.906 394.782 441.923 399.386 440.793 403.375Z" fill="white"/>
<path d="M406.98 406.79V407.13H406.908L406.98 406.79Z" fill="white"/>
<path d="M406.98 406.79L406.909 407.13C406.227 410.234 405.156 413.194 402.854 415.903C400.731 418.415 397.681 420.484 395.014 422.744C395.025 422.713 395.025 422.68 395.014 422.649C394.995 422.487 394.965 422.327 394.925 422.17C394.925 422.033 394.877 421.901 394.853 421.716C394.853 421.626 394.853 421.512 394.811 421.399C394.452 419.773 393.847 418.213 393.017 416.77C390.326 412.148 385.129 408.841 382.008 404.421C382.008 404.421 383.419 381.129 395.337 374.043C406.639 367.345 406.98 402.914 406.98 406.79Z" fill="white"/>
<path d="M406.98 406.79V407.13H406.908L406.98 406.79Z" fill="white"/>
<path d="M394.991 422.648V422.786C394.991 422.786 394.949 422.583 394.901 422.188C394.941 422.339 394.971 422.493 394.991 422.648Z" fill="white"/>
<path d="M393.926 422.786C396.581 420.525 399.667 418.427 401.796 415.921C407.776 408.87 405.467 399.859 409.301 392.126C413.965 382.684 428.634 376.1 443.052 376.961C441.682 381.425 440.749 386.011 440.265 390.655C439.835 394.794 440.863 399.392 439.733 403.399C437.897 409.845 428.108 413.756 426.918 420.364C425.859 426.218 432.348 431.684 431.277 437.628C430.135 444.015 420.842 447.543 417.421 453.176C414.629 457.763 415.938 463.019 414.491 467.905C412.739 473.795 406.64 478.998 398.692 481.456C398.441 481.539 398.166 481.629 397.909 481.695C395.517 479.715 392.736 476.229 390.476 472.462" stroke="#030303" stroke-width="4.05" stroke-miterlimit="10"/>
<path d="M434.249 384.359C412.751 407.495 402.639 456.274 398.704 481.462C398.381 483.585 398.106 485.528 397.843 487.28" stroke="#030303" stroke-width="4.05" stroke-miterlimit="10"/>
<path d="M436.234 501.465L426.373 559.824C426.139 561.421 425.346 562.885 424.135 563.955C422.924 565.024 421.374 565.631 419.759 565.666H368.044C366.413 565.628 364.849 565.01 363.634 563.921C362.419 562.832 361.633 561.345 361.418 559.728L352.299 501.459L436.234 501.465Z" stroke="#030303" stroke-width="4.05" stroke-miterlimit="10"/>
<path d="M445.628 494.947C445.539 496.677 444.8 498.311 443.558 499.52C442.316 500.729 440.663 501.423 438.93 501.465H349.763C348.049 501.424 346.413 500.743 345.176 499.557C343.939 498.37 343.19 496.765 343.077 495.054C342.7 490.868 345.798 487.28 349.763 487.28H438.93C442.859 487.286 445.945 490.82 445.628 494.947Z" stroke="#030303" stroke-width="4.05" stroke-miterlimit="10"/>
<path d="M384.651 480.655C388.478 476.857 393.167 468.39 395.242 461.477C396.952 455.778 393.944 449.911 393.25 444.063C392.174 434.908 396.719 425.064 391.929 416.764C389.256 412.136 384.059 408.847 380.937 404.415C375.191 396.253 377.397 385.812 373.726 376.86C369.235 365.91 355.14 358.274 341.29 359.29C342.613 364.495 343.511 369.799 343.975 375.149C344.388 379.933 343.377 385.268 344.489 389.908C346.241 397.383 355.642 401.91 356.796 409.57C357.813 416.34 351.588 422.678 352.61 429.573C353.71 436.965 362.627 441.049 365.922 447.603C368.601 452.919 367.345 459.019 368.732 464.664C370.472 471.72 376.638 477.922 384.651 480.655Z" stroke="#030303" stroke-width="4.05" stroke-miterlimit="10"/>
<path d="M349.746 367.866C370.383 394.68 380.095 451.185 383.916 480.355C384.239 482.885 384.514 485.205 384.759 487.28" stroke="#030303" stroke-width="4.05" stroke-miterlimit="10"/>
<path d="M380.926 404.415C380.926 404.415 382.343 381.123 394.255 374.043C406.167 366.963 405.916 406.64 405.916 406.64" stroke="#030303" stroke-width="4.05" stroke-miterlimit="10"/>
<path d="M393.927 422.786C393.927 422.786 391.493 409.463 395.763 396.36" stroke="#030303" stroke-width="4.05" stroke-miterlimit="10"/>
</svg>
