<svg width="59" height="68" viewBox="0 0 59 68" fill="none" xmlns="http://www.w3.org/2000/svg">
<path d="M43.3085 18.4037V14.6606C43.3085 14.3174 43.0261 14.0367 42.6809 14.0367H12.5532C12.208 14.0367 11.9255 14.3174 11.9255 14.6606V18.4037C11.9255 18.7468 12.208 19.0275 12.5532 19.0275H42.6809C43.0261 19.0275 43.3085 18.7468 43.3085 18.4037ZM12.5532 25.2661C12.208 25.2661 11.9255 25.5468 11.9255 25.8899V29.633C11.9255 29.9761 12.208 30.2569 12.5532 30.2569H26.9894C27.3346 30.2569 27.617 29.9761 27.617 29.633V25.8899C27.617 25.5468 27.3346 25.2661 26.9894 25.2661H12.5532ZM42.0532 34.3119C32.6932 34.3119 25.1064 41.8528 25.1064 51.156C25.1064 60.4592 32.6932 68 42.0532 68C51.4132 68 59 60.4592 59 51.156C59 41.8528 51.4132 34.3119 42.0532 34.3119ZM50.4874 59.539C48.2356 61.7771 45.2386 63.0092 42.0532 63.0092C38.8678 63.0092 35.8707 61.7771 33.619 59.539C31.3673 57.3009 30.1277 54.322 30.1277 51.156C30.1277 47.9899 31.3673 45.011 33.619 42.7729C35.8707 40.5349 38.8678 39.3028 42.0532 39.3028C45.2386 39.3028 48.2356 40.5349 50.4874 42.7729C52.7391 45.011 53.9787 47.9899 53.9787 51.156C53.9787 54.322 52.7391 57.3009 50.4874 59.539ZM49.0359 45.2294H45.5602C45.3562 45.2294 45.168 45.3229 45.0503 45.4867L40.0682 52.3335L38.2558 49.8459C38.1978 49.7655 38.1212 49.7002 38.0324 49.6554C37.9437 49.6106 37.8454 49.5877 37.7459 49.5885H34.2859C33.7759 49.5885 33.4778 50.1656 33.7759 50.5789L39.5661 58.5408C39.8172 58.8839 40.3271 58.8839 40.5782 58.5408L49.538 46.2197C49.844 45.8064 49.5459 45.2294 49.0359 45.2294ZM23.8511 60.5138H5.64894V5.61468H49.5851V32.4404C49.5851 32.7835 49.8676 33.0642 50.2128 33.0642H54.6064C54.9516 33.0642 55.234 32.7835 55.234 32.4404V2.49541C55.234 1.11514 54.1121 0 52.7234 0H2.51064C1.12194 0 0 1.11514 0 2.49541V63.633C0 65.0133 1.12194 66.1284 2.51064 66.1284H23.8511C24.1963 66.1284 24.4787 65.8477 24.4787 65.5046V61.1376C24.4787 60.7945 24.1963 60.5138 23.8511 60.5138Z" fill="#646363"/>
</svg>