<svg width="30" height="27" viewBox="0 0 30 27" fill="none" xmlns="http://www.w3.org/2000/svg">
<path d="M16.3385 7.30919C15.5944 7.96814 14.3884 7.96814 13.6443 7.30919C12.9005 6.65024 12.9005 5.58178 13.6443 4.92283C14.3884 4.26388 15.5944 4.26388 16.3385 4.92283C17.0824 5.58178 17.0824 6.65024 16.3385 7.30919Z" fill="#9C4DF4"/>
<path d="M18.9407 9.86596C18.7086 9.86596 18.4765 9.78735 18.2998 9.62993C17.9464 9.31589 17.9471 8.80705 18.3009 8.49363C19.018 7.85844 19.4129 7.01403 19.4129 6.116C19.4129 5.21797 19.018 4.37356 18.3009 3.73838C17.9471 3.42475 17.9464 2.91611 18.2998 2.60187C18.653 2.28783 19.2263 2.28722 19.5802 2.60086C20.6401 3.53972 21.2238 4.78794 21.2238 6.116C21.2238 7.44386 20.6401 8.69229 19.5802 9.63115C19.4035 9.78776 19.1721 9.86596 18.9407 9.86596Z" fill="#9C4DF4"/>
<path d="M20.989 12.2318C20.7569 12.2318 20.5248 12.1532 20.3481 11.996C19.9947 11.6818 19.9954 11.1731 20.3493 10.8595C21.7798 9.59237 22.5678 7.90782 22.5678 6.11602C22.5678 4.32422 21.7798 2.63967 20.3493 1.37255C19.9954 1.05892 19.9947 0.550288 20.3481 0.236048C20.7015 -0.0779894 21.2747 -0.0785988 21.6285 0.235032C23.4019 1.80583 24.3788 3.8944 24.3785 6.11602C24.3785 8.33764 23.4019 10.4264 21.6285 11.9972C21.4518 12.1536 21.2204 12.2318 20.989 12.2318Z" fill="#9C4DF4"/>
<path d="M11.0372 9.86556C10.8058 9.86556 10.5744 9.78736 10.3975 9.63074C9.33756 8.69188 8.75391 7.44345 8.75391 6.1156C8.75391 4.78754 9.33756 3.53931 10.3975 2.60045C10.7514 2.28682 11.3247 2.28723 11.6779 2.60147C12.0313 2.9155 12.0306 3.42434 11.6767 3.73797C10.9596 4.37316 10.5648 5.21756 10.5648 6.1156C10.5648 7.01363 10.9596 7.85804 11.6767 8.49322C12.0306 8.80665 12.0313 9.31549 11.6779 9.62952C11.5012 9.78675 11.2691 9.86556 11.0372 9.86556Z" fill="#9C4DF4"/>
<path d="M8.98936 12.2326C8.75773 12.2326 8.52633 12.1544 8.34963 11.9978C6.57625 10.427 5.59961 8.33844 5.59961 6.11682C5.59961 3.89499 6.57625 1.80642 8.34963 0.235627C8.70348 -0.0778011 9.27683 -0.0773948 9.63 0.236846C9.98339 0.550883 9.9827 1.05952 9.62885 1.37315C8.19834 2.64027 7.4103 4.32482 7.4103 6.11662C7.4103 7.90842 8.19834 9.59317 9.62885 10.8603C9.9827 11.1739 9.98339 11.6826 9.63 11.9968C9.4533 12.154 9.22121 12.2326 8.98936 12.2326Z" fill="#9C4DF4"/>
<path d="M26.9226 13.621H3.05557C1.88576 13.621 0.9375 14.4626 0.9375 15.5006V24.7447C0.9375 25.7829 1.88576 26.6245 3.05557 26.6245H26.9224C28.0922 26.6245 29.0405 25.7829 29.0405 24.7447V15.5006C29.0405 14.4626 28.0922 13.621 26.9226 13.621ZM7.90259 24.2127H4.56664C4.06677 24.2127 3.66142 23.853 3.66142 23.4092V16.8363C3.66142 16.3927 4.06677 16.0327 4.56664 16.0327C5.06675 16.0327 5.4721 16.3925 5.4721 16.8363V22.6056H7.90259C8.40269 22.6056 8.80804 22.9653 8.80804 23.4092C8.80804 23.853 8.40269 24.2127 7.90259 24.2127ZM11.6132 23.4092C11.6132 23.853 11.2079 24.2127 10.7078 24.2127C10.2077 24.2127 9.8023 23.853 9.8023 23.4092V16.8363C9.8023 16.3927 10.2077 16.0327 10.7078 16.0327C11.2079 16.0327 11.6132 16.3925 11.6132 16.8363V23.4092ZM19.2313 17.0687L16.9954 23.6413C16.9951 23.6419 16.9949 23.6426 16.9947 23.6432C16.7518 24.3787 15.5138 24.3606 15.2625 23.6432C15.2623 23.6426 15.262 23.6419 15.2618 23.6413L13.0259 17.0687C12.8814 16.6438 13.1522 16.1955 13.631 16.0671C14.1094 15.9389 14.615 16.1792 14.7594 16.6042L16.1286 20.6287L17.4978 16.6042C17.6424 16.1792 18.1475 15.9387 18.6264 16.0671C19.105 16.1955 19.3759 16.6438 19.2313 17.0687ZM24.8016 18.9054C25.3017 18.9054 25.707 19.2651 25.707 19.709C25.707 20.1526 25.3017 20.5125 24.8016 20.5125H22.2322V22.6056H25.2893C25.7894 22.6056 26.1948 22.9653 26.1948 23.4092C26.1948 23.853 25.7894 24.2127 25.2893 24.2127H21.3267C20.8266 24.2127 20.4213 23.853 20.4213 23.4092V16.8363C20.4213 16.3927 20.8266 16.0327 21.3267 16.0327H25.4113C25.9112 16.0327 26.3168 16.3925 26.3168 16.8363C26.3168 17.2802 25.9112 17.6399 25.4113 17.6399H22.2319V18.9054H24.8016Z" fill="#9C4DF4"/>
</svg>
