<svg width="56" height="55" viewBox="0 0 56 55" fill="none" xmlns="http://www.w3.org/2000/svg">
<path d="M23.3846 10.5056C23.3846 16.3077 18.7008 21.0112 12.9231 21.0112C7.14533 21.0112 2.46154 16.3077 2.46154 10.5056C2.46154 4.70353 7.14533 0 12.9231 0C18.7008 0 23.3846 4.70353 23.3846 10.5056Z" fill="#E01E5A"/>
<path d="M43.6923 30.2809C43.6923 40.8612 35.1513 49.4382 24.6154 49.4382C14.0795 49.4382 5.53846 40.8612 5.53846 30.2809C5.53846 19.7006 14.0795 11.1236 24.6154 11.1236C35.1513 11.1236 43.6923 19.7006 43.6923 30.2809Z" fill="#36C5F0"/>
<path d="M24.6154 42.6404C24.6154 49.4664 19.105 55 12.3077 55C5.51034 55 0 49.4664 0 42.6404C0 35.8145 5.51034 30.2809 12.3077 30.2809C19.105 30.2809 24.6154 35.8145 24.6154 42.6404Z" fill="#ECB22E"/>
<path d="M56 40.7865C56 46.5886 51.3162 51.2921 45.5385 51.2921C39.7607 51.2921 35.0769 46.5886 35.0769 40.7865C35.0769 34.9844 39.7607 30.2809 45.5385 30.2809C51.3162 30.2809 56 34.9844 56 40.7865Z" fill="#2EB67D"/>
</svg>