<svg width="30" height="27" viewBox="0 0 30 27" fill="none" xmlns="http://www.w3.org/2000/svg">
<path d="M15 0C6.71572 0 0 5.96009 0 13.3122C0 20.6644 6.71572 26.6245 15 26.6245C23.2842 26.6245 29.9999 20.6644 29.9999 13.3122C29.9911 5.96338 23.2806 0.00785586 15 0ZM21.317 13.7364C21.2132 13.9213 21.0444 14.0711 20.836 14.1633V14.168L12.2646 17.9715C11.7353 18.2063 11.0918 18.0158 10.8272 17.546C10.752 17.4124 10.7133 17.265 10.7142 17.1157V9.50877C10.714 8.98359 11.1934 8.55771 11.7852 8.55743C11.9516 8.55737 12.1158 8.59169 12.2646 8.65771L20.836 12.4612C21.3656 12.6955 21.581 13.2664 21.317 13.7364Z" fill="#00C968"/>
</svg>