<svg width="608" height="608" viewBox="0 0 608 608" fill="none" xmlns="http://www.w3.org/2000/svg">
<path d="M139.841 257.901C139.841 257.901 107.112 161.059 221.27 172.879C335.428 184.698 280.885 141.834 324.022 115.234C367.16 88.6343 494.262 171.389 441.087 251.207C387.911 331.026 526.067 258.011 554.886 378.042C572.67 452.115 528.547 506.634 492.146 537.539" stroke="#CCDDE2" stroke-width="5.47" stroke-miterlimit="10"/>
<path d="M503.279 444.995C494.7 395.316 464.324 350.859 414.973 334.947C402.348 330.9 389.439 327.8 376.353 325.675V325.742C375.671 329.866 374.055 333.78 371.629 337.185C366.485 344.231 359.396 350.02 351.188 353.035C342.809 356.136 332.431 356.537 324.654 351.661C319.973 348.731 315.431 343.569 314.61 337.999C313.674 331.725 316.872 325.785 321.371 321.638C283.238 321.948 247.366 328.223 218.619 335.367C219.615 339.538 220.995 343.609 222.742 347.527C225.184 352.988 228.638 357.939 232.919 362.119C238.259 356.829 242.934 350.908 246.843 344.487C250.581 345.71 253.877 348.006 256.321 351.088C258.765 354.17 260.249 357.902 260.59 361.821V362.021C262.097 376.255 248.393 386.949 236.878 393.528C223.574 401.177 208.745 406.904 194.178 411.665C188.171 413.635 180.364 415.313 174.022 413.258C173.339 413.04 172.673 412.774 172.028 412.461C165.705 409.36 161.473 402.861 158.172 396.921C148.766 380.049 142.65 361.657 138.503 342.778C109.727 346.457 106.431 326.97 104.723 322.191L80.1047 391.011C78.8134 395.958 78.6735 401.135 79.6962 406.144C80.7188 411.153 82.8766 415.862 86.003 419.907C89.1299 423.952 93.1427 427.226 97.7325 429.478C102.322 431.73 107.368 432.899 112.481 432.896H214.394L260.687 551.638L273.807 585.34H348.75C342.67 585.34 339.344 583.856 336.93 581.436C334.437 578.942 333.033 575.563 333.027 572.037C333.027 564.741 339.015 558.758 348.75 558.758H349.437C348.701 558.758 347.996 558.691 347.26 558.624C347.715 558.575 348.168 558.5 348.616 558.399C348.134 558.388 347.653 558.351 347.175 558.29C351.565 557.771 355.633 555.727 358.669 552.512C361.704 549.298 363.513 545.119 363.779 540.707C363.791 540.477 363.791 540.248 363.779 540.02V539.667C363.674 535.143 361.945 530.807 358.907 527.453C355.87 524.098 351.727 521.949 347.236 521.396C347.746 521.354 348.233 521.311 348.725 521.311C348.281 521.202 347.789 521.135 347.327 521.068C348.056 521.001 348.792 520.953 349.497 520.953L404.327 521.244L414.414 521.287H426.385C426.938 521.287 427.498 521.287 428.027 521.354L445.811 521.445L457.691 521.512C462.656 521.553 467.403 523.56 470.892 527.092C474.382 530.624 476.332 535.394 476.314 540.36C476.307 543.168 475.657 545.936 474.411 548.452C479.508 547.8 484.235 545.443 487.823 541.764C496.378 533.028 500.062 519.949 502.61 508.324C507.115 487.616 506.848 465.795 503.279 444.995ZM364.752 446.394C354.422 462.293 336.833 460.864 336.833 460.864C336.833 460.864 335.374 462.287 331.969 456.231C328.564 450.175 318.866 446.035 318.866 446.035C318.094 452.115 316.495 461.356 300.626 449.379C284.758 437.401 289.542 419.94 290.898 410.716C292.254 401.493 297.659 398.435 297.659 398.435L304.043 395.066C304.043 395.066 285.578 390.318 284.691 390.141C283.803 389.965 267.357 376.194 284.046 372.558C300.736 368.922 326.752 383.38 331.78 386.238C336.808 389.096 366.193 413.951 366.193 413.951C366.193 413.951 375.137 430.519 364.752 446.394Z" fill="#353642"/>
<path d="M138.479 342.79C138.479 342.79 152.397 341.1 157.607 331.165L153.065 356.647C153.065 356.647 208.43 337.799 218.583 335.367C218.583 335.367 221.855 356.458 234.878 362.119L248.315 345.034C248.315 345.034 265.162 349.29 260.554 372.248C255.945 395.206 192.202 414.395 181.392 413.951C170.582 413.507 158.945 406.855 147.028 371.111L138.479 342.79Z" fill="#353642"/>
<path d="M161.15 286.028C164.676 291.767 168.221 297.494 171.881 303.149C174.137 306.633 178.247 311.6 173.876 315.242C172.453 316.333 170.735 316.969 168.945 317.066C166.136 317.315 163.187 316.64 161.478 314.227L152.966 300.121C151.269 297.308 148.576 295.237 145.422 294.319C142.267 293.403 138.883 293.707 135.942 295.172" stroke="black" stroke-width="5.47" stroke-miterlimit="10"/>
<path d="M193.345 304.608C195.57 309.898 194.062 313.308 191.46 315.023C187.204 317.814 181.507 316.476 178.491 312.403L161.182 286.058" stroke="black" stroke-width="5.47" stroke-miterlimit="10"/>
<path d="M175.804 278.367C182.103 286.027 190.049 300.255 194.445 306.195C198.841 312.135 205.638 308.554 205.638 308.554C211.159 305.581 210.223 300.65 207.809 294.661C201.863 279.96 193.375 270.183 183.909 263.775C154.573 243.93 124.477 258.57 115.521 292.825L80.1047 391.011C78.8134 395.958 78.6735 401.135 79.6962 406.145C80.7188 411.154 82.8766 415.862 86.003 419.907C89.1299 423.952 93.1427 427.226 97.7325 429.478C102.322 431.73 107.368 432.899 112.481 432.896H214.394L273.826 585.346" stroke="black" stroke-width="5.47" stroke-miterlimit="10"/>
<path d="M212.193 287.918C219.489 285.389 219.155 273.752 208.8 269.824C197.364 265.483 177.057 259.342 171.956 257.81C171.924 257.786 171.886 257.771 171.846 257.768C171.487 257.658 171.238 257.567 171.044 257.525L170.758 257.433" stroke="black" stroke-width="5.47" stroke-miterlimit="10"/>
<path d="M319.989 404.271C313.605 396.598 296.131 392.251 284.725 390.148C282.808 389.788 281.06 388.814 279.744 387.374C278.428 385.935 277.616 384.106 277.429 382.164C277.297 380.855 277.448 379.532 277.873 378.285C278.553 376.372 279.856 374.743 281.572 373.658C283.289 372.573 285.32 372.096 287.34 372.303C306.796 374.273 326.86 380.395 341.701 393.583C341.701 393.583 413.646 448.485 422.237 453.829C425.781 455.982 429.089 453.44 426.687 450.06L425.933 448.771C421.705 441.514 416.7 434.738 411.007 428.561" stroke="black" stroke-width="5.47" stroke-miterlimit="10"/>
<path d="M321.322 321.632C230.84 322.386 153.064 356.641 153.064 356.641L160.829 313.12" stroke="black" stroke-width="5.47" stroke-miterlimit="10"/>
<path d="M461.855 558.491C461.855 558.491 451.999 556.259 449.379 564.151C446.758 572.043 444.022 584.598 462.864 585.34C481.706 586.082 470.64 582.379 469.552 576.281C468.464 570.182 461.855 558.491 461.855 558.491Z" fill="#353642"/>
<path d="M311.296 414.285C311.296 414.285 300.662 406.223 291.086 414.395C290.683 414.75 290.331 415.159 290.04 415.611" stroke="black" stroke-width="5.47" stroke-miterlimit="10"/>
<g opacity="0.77">
<path opacity="0.77" d="M178.455 312.372C181.495 316.452 187.186 317.783 191.424 314.987C193.996 313.284 195.503 309.892 193.333 304.651C193.728 305.228 194.087 305.739 194.439 306.207C198.829 312.172 205.633 308.578 205.633 308.578C211.153 305.605 210.223 300.674 207.809 294.679C205.447 288.742 202.348 283.124 198.586 277.959C201.048 275.655 203.973 273.326 207.055 274.348C210.381 275.454 211.311 279.625 211.688 283.103C211.865 284.72 212.041 286.319 212.217 287.937L214.88 311.746C215.768 319.65 216.656 327.669 218.583 335.385C219.579 339.556 220.959 343.627 222.705 347.545C225.148 353.007 228.602 357.958 232.883 362.137C238.223 356.847 242.898 350.926 246.806 344.505C250.544 345.728 253.84 348.024 256.285 351.106C258.729 354.188 260.213 357.921 260.553 361.839V362.04C262.061 376.273 248.357 386.968 236.841 393.546C223.538 401.195 208.709 406.922 194.141 411.683C188.134 413.653 180.328 415.331 173.986 413.276C173.303 413.058 172.636 412.792 171.992 412.479C165.669 409.379 161.437 402.879 158.136 396.939C142.328 368.515 135.761 335.877 132.302 303.556C139.221 302.602 146.116 301.538 152.925 300.072C152.925 300.072 152.925 300.121 152.968 300.139L160.817 313.157L161.461 314.239C163.164 316.671 166.113 317.321 168.928 317.078C170.717 316.989 172.436 316.353 173.852 315.254C178.218 311.606 174.12 306.657 171.858 303.173" fill="white"/>
<path opacity="0.77" d="M178.455 312.372C181.495 316.452 187.186 317.783 191.424 314.987C193.996 313.284 195.503 309.892 193.333 304.651C193.728 305.228 194.087 305.739 194.439 306.207C198.829 312.172 205.633 308.578 205.633 308.578C211.153 305.605 210.223 300.674 207.809 294.679C205.447 288.742 202.348 283.124 198.586 277.959C201.048 275.655 203.973 273.326 207.055 274.348C210.381 275.454 211.311 279.625 211.688 283.103C211.865 284.72 212.041 286.319 212.217 287.937L214.88 311.746C215.768 319.65 216.656 327.669 218.583 335.385C219.579 339.556 220.959 343.627 222.705 347.545C225.148 353.007 228.602 357.958 232.883 362.137C238.223 356.847 242.898 350.926 246.806 344.505C250.544 345.728 253.84 348.024 256.285 351.106C258.729 354.188 260.213 357.921 260.553 361.839V362.04C262.061 376.273 248.357 386.968 236.841 393.546C223.538 401.195 208.709 406.922 194.141 411.683C188.134 413.653 180.328 415.331 173.986 413.276C173.303 413.058 172.636 412.792 171.992 412.479C165.669 409.379 161.437 402.879 158.136 396.939C142.328 368.515 135.761 335.877 132.302 303.556C139.221 302.602 146.116 301.538 152.925 300.072C152.925 300.072 152.925 300.121 152.968 300.139L160.817 313.157L161.461 314.239C163.164 316.671 166.113 317.321 168.928 317.078C170.717 316.989 172.436 316.353 173.852 315.254C178.218 311.606 174.12 306.657 171.858 303.173" fill="#3B97D3"/>
<path opacity="0.77" d="M180.322 314.3C183.015 317.948 187.618 317.485 191.424 314.987C193.722 313.467 195.607 313.91 193.667 309.223C194.026 309.733 194.075 308.007 194.391 308.39C198.312 313.716 194.439 306.189 194.439 306.189C199.911 313.102 211.822 306.59 209.639 301.246C207.329 295.488 204.897 286.976 201.814 282.72C204.246 280.422 203.778 280.762 206.873 282.592C207.705 283.127 208.4 283.847 208.906 284.696C209.411 285.545 209.712 286.501 209.785 287.487C210.035 289.803 210.284 292.022 210.533 294.284L212.904 315.564C213.701 322.635 214.491 329.779 216.212 336.662C217.101 340.383 218.335 344.014 219.896 347.509C222.073 352.318 229.065 360.325 232.883 363.991C237.632 359.279 243.323 350.615 246.806 344.858C253.494 346.913 253.203 353.309 253.677 360.295V360.477C255.027 373.178 242.794 382.718 232.543 388.597C220.662 395.425 207.426 400.532 194.421 404.788C189.059 406.551 182.091 408.071 176.43 406.211C175.82 406.018 175.225 405.78 174.649 405.5C169.007 402.727 165.225 396.933 162.276 391.625C149.368 368.442 143.379 342.122 140.084 315.734C139.843 313.76 140.377 311.769 141.574 310.181C142.772 308.593 144.54 307.532 146.505 307.222C150.207 306.614 153.898 306.006 157.564 305.192L157.667 305.24L164.672 316.859C166.198 319.018 166.447 317.327 168.958 317.109C170.545 316.969 173.621 316.659 174.85 315.631C178.747 312.384 176.546 311.041 174.527 307.934" fill="#3B97D3"/>
</g>
<path d="M310.013 426.019C310.013 426.019 289.822 419.38 289.518 430.543" stroke="black" stroke-width="5.47" stroke-miterlimit="10"/>
<path opacity="0.54" d="M129.273 539.734L89.6735 438.283C89.1829 436.32 89.1464 434.271 89.5665 432.291C89.9867 430.311 90.8518 428.454 92.0976 426.859C93.3428 425.264 94.9358 423.974 96.7543 423.087C98.5734 422.2 100.57 421.739 102.594 421.739H259.883C263.415 421.739 266.845 422.927 269.618 425.113C272.393 427.299 274.35 430.356 275.174 433.79L318.525 535.216C318.993 537.173 319.012 539.21 318.581 541.175C318.149 543.14 317.277 544.982 316.031 546.562C314.786 548.142 313.198 549.419 311.388 550.297C309.578 551.175 307.592 551.632 305.58 551.632H144.527C141.022 551.635 137.617 550.464 134.853 548.308C132.088 546.152 130.124 543.134 129.273 539.734Z" fill="white"/>
<path d="M316.586 443.135C316.586 443.135 319.864 446.138 318.617 450.431C317.693 453.611 314.531 455.617 311.4 454.529C301.429 451.081 292.449 445.226 290.26 435.273C289.226 430.234 289.002 425.062 289.597 419.952C290.078 415.215 290.777 410.102 292.37 405.597C294.802 398.678 302.25 393.856 309.479 397.188" stroke="black" stroke-width="5.47" stroke-miterlimit="10"/>
<path d="M129.273 539.734L89.6735 438.283C89.1829 436.32 89.1464 434.271 89.5665 432.291C89.9867 430.311 90.8518 428.454 92.0976 426.859C93.3428 425.264 94.9358 423.974 96.7543 423.087C98.5734 422.2 100.57 421.739 102.594 421.739H259.883C263.415 421.739 266.845 422.927 269.618 425.113C272.393 427.299 274.35 430.356 275.174 433.79L318.525 535.216C318.993 537.173 319.012 539.21 318.581 541.175C318.149 543.14 317.277 544.982 316.031 546.562C314.786 548.142 313.198 549.419 311.388 550.297C309.578 551.175 307.592 551.632 305.58 551.632H144.527C141.022 551.635 137.617 550.464 134.853 548.308C132.088 546.152 130.124 543.134 129.273 539.734Z" fill="#3B97D3"/>
<path d="M129.273 539.734L89.6735 438.283C89.1829 436.32 89.1464 434.271 89.5665 432.291C89.9867 430.311 90.8518 428.454 92.0976 426.859C93.3428 425.264 94.9358 423.974 96.7543 423.087C98.5734 422.2 100.57 421.739 102.594 421.739H259.883C263.415 421.739 266.845 422.927 269.618 425.113C272.393 427.299 274.35 430.356 275.174 433.79L318.525 535.216C318.993 537.173 319.012 539.21 318.581 541.175C318.149 543.14 317.277 544.982 316.031 546.562C314.786 548.142 313.198 549.419 311.388 550.297C309.578 551.175 307.592 551.632 305.58 551.632H144.527C141.022 551.635 137.617 550.464 134.853 548.308C132.088 546.152 130.124 543.134 129.273 539.734Z" stroke="black" stroke-width="5.47" stroke-linecap="square" stroke-linejoin="round"/>
<path d="M135.068 535.648L98.5328 442.016C98.0817 440.205 98.0483 438.314 98.4362 436.489C98.8247 434.663 99.6236 432.949 100.773 431.478C101.922 430.007 103.391 428.817 105.069 427.999C106.747 427.181 108.589 426.755 110.456 426.755H255.561C258.819 426.754 261.983 427.85 264.542 429.866C267.101 431.882 268.906 434.702 269.667 437.869L309.667 531.447C310.099 533.252 310.116 535.132 309.717 536.945C309.318 538.758 308.514 540.457 307.364 541.915C306.214 543.372 304.749 544.55 303.079 545.36C301.408 546.171 299.577 546.591 297.72 546.592H149.137C145.908 546.595 142.771 545.519 140.222 543.537C137.674 541.555 135.86 538.779 135.068 535.648Z" fill="#3B97D3"/>
<path d="M445.616 520.959L473.438 585.34" stroke="black" stroke-width="5.47" stroke-miterlimit="10"/>
<path d="M577.6 585.34H30.4004" stroke="black" stroke-width="5.47" stroke-miterlimit="10"/>
<path d="M318.816 294.764C314.305 299.221 307.568 299.215 303.731 295.093" stroke="black" stroke-width="5.47" stroke-miterlimit="10"/>
<path d="M198.586 277.941C201.048 275.637 203.973 273.308 207.055 274.33C210.381 275.436 211.311 279.607 211.688 283.085C212.754 292.643 213.818 302.191 214.88 311.728C216.23 323.888 217.653 336.339 222.705 347.515C225.149 352.976 228.602 357.927 232.883 362.107" stroke="black" stroke-width="5.47" stroke-miterlimit="10"/>
<path d="M260.553 362.034V361.833C260.213 357.914 258.729 354.182 256.285 351.1C253.841 348.019 250.545 345.723 246.806 344.499C242.899 350.92 238.223 356.841 232.883 362.131C218.883 376.052 200.898 385.272 181.422 388.512C182.358 392.239 184.286 395.632 185.617 399.219C186.949 402.806 187.612 406.959 185.994 410.418C183.951 414.832 178.09 414.255 174.017 413.276C173.974 413.276 173.95 413.276 173.907 413.276" stroke="black" stroke-width="5.47" stroke-miterlimit="10"/>
<path d="M152.937 300.066C146.127 301.532 139.233 302.596 132.313 303.55C135.773 335.871 142.315 368.509 158.147 396.933C161.449 402.873 165.681 409.373 172.004 412.473C172.649 412.786 173.315 413.053 173.998 413.27C180.339 415.355 188.146 413.647 194.153 411.677C208.745 406.91 223.55 401.189 236.853 393.54C248.338 386.956 262.042 376.267 260.565 362.034C260.422 360.466 260.102 358.92 259.61 357.425" stroke="black" stroke-width="5.47" stroke-miterlimit="10"/>
<path d="M266.803 235.594C267.823 239.849 270.152 243.675 273.463 246.535C276.773 249.396 280.898 251.145 285.256 251.536C285.617 249.78 286.402 248.14 287.542 246.757C292.406 241.023 294.479 251.779 310.038 244.057C331.597 233.332 339.781 239.485 339.781 239.485C340.498 240.02 340.389 244.957 340.511 245.857C341.119 250.982 341.666 256.083 342.268 261.203C342.632 264.328 342.991 267.429 343.332 270.53C343.625 270.002 343.95 269.492 344.304 269.003C346.268 262.054 349.776 253.846 357.34 257.379C358.872 258.126 360.205 259.223 361.231 260.583C366.247 267.173 362.447 273.539 357.2 278.251C355.885 279.713 354.416 281.028 352.816 282.173C353.68 283.96 357.206 291.056 357.206 291.08C357.571 291.797 369.895 277.85 370.813 276.33C372.185 272.606 372.921 268.679 372.99 264.711C373.191 248.398 366.551 229.41 353.339 220.053C350.062 217.737 351.108 215.506 350.907 212.356C350.893 212.186 350.828 212.024 350.721 211.892C350.612 211.759 350.467 211.662 350.303 211.614C350.139 211.566 349.964 211.569 349.802 211.622C349.64 211.676 349.497 211.777 349.393 211.912C345.253 216.679 335.002 216.205 335.002 216.205C299.422 207.291 287.463 223.112 280.282 225.933C277.353 227.043 274.127 227.096 271.162 226.085C270.988 227.067 270.548 227.982 269.891 228.732C269.235 229.482 268.385 230.039 267.435 230.341L267.617 231.988C267.772 233.249 267.484 234.523 266.803 235.594Z" fill="#3B97D3"/>
<path d="M285.28 251.56C280.922 251.169 276.798 249.42 273.487 246.56C270.177 243.7 267.847 239.872 266.827 235.618C266.428 233.986 266.175 232.322 266.073 230.645L266.353 230.614C266.735 230.586 267.112 230.504 267.472 230.371C268.422 230.068 269.271 229.512 269.928 228.762C270.585 228.012 271.024 227.097 271.199 226.115C271.31 225.571 271.332 225.012 271.266 224.461L270.354 216.412C270.354 216.412 276.786 221.197 283.924 218.4C291.062 215.603 303.046 199.783 338.644 208.672C338.644 208.672 346.682 209.146 350.804 204.379C350.908 204.243 351.05 204.142 351.213 204.089C351.375 204.036 351.549 204.033 351.714 204.081C351.877 204.129 352.023 204.226 352.131 204.358C352.239 204.491 352.304 204.653 352.318 204.823C352.531 207.979 353.698 210.21 356.981 212.52C370.193 221.884 376.833 240.865 376.626 257.178C376.565 263.945 374.315 270.627 370.844 276.36C369.926 277.88 357.602 291.828 357.237 291.11C357.237 291.11 353.71 283.991 352.847 282.203L352.64 281.808L353.035 281.547C354.503 280.55 355.905 279.459 357.231 278.282C362.472 273.57 366.278 267.204 361.262 260.613C360.235 259.254 358.902 258.156 357.37 257.409C349.783 253.877 346.299 262.085 344.335 269.034C343.954 270.362 343.719 271.728 343.636 273.108C343.545 272.256 343.453 271.436 343.362 270.584C343.022 267.484 342.663 264.383 342.298 261.258C341.69 256.138 341.119 251.037 340.541 245.912C340.45 245.036 340.541 240.075 339.811 239.54C339.811 239.54 331.622 233.387 310.068 244.112C294.509 251.834 292.436 241.072 287.572 246.812C286.433 248.195 285.648 249.835 285.286 251.59C285.175 252.154 285.104 252.725 285.073 253.299C285.062 253.373 285.062 253.449 285.073 253.524C285 254.782 284.976 256.035 284.946 257.263C284.83 269.113 286.131 281.492 290.782 292.497C296.437 305.836 311.4 318.993 326.958 312.773C331.822 310.822 336.182 307.678 340.17 304.341" stroke="black" stroke-width="5.47" stroke-miterlimit="10"/>
<path d="M295.928 280.461C297.476 279.943 298.222 278.006 297.595 276.134C296.969 274.261 295.207 273.163 293.659 273.681C292.111 274.198 291.365 276.136 291.991 278.009C292.618 279.881 294.38 280.979 295.928 280.461Z" fill="black"/>
<path d="M319.076 279.721C320.624 279.204 321.371 277.266 320.744 275.394C320.118 273.521 318.355 272.423 316.808 272.941C315.26 273.459 314.513 275.397 315.14 277.269C315.766 279.141 317.529 280.239 319.076 279.721Z" fill="black"/>
<path d="M310.226 283.729C310.226 283.729 302.523 288.101 302.055 283.565C301.909 282.167 300.024 268.469 300.024 268.469C300.024 268.469 293.798 261.872 284.259 266.748" stroke="black" stroke-width="5.47" stroke-miterlimit="10"/>
<path d="M308.494 264.632C308.494 264.632 320.934 258.418 329.166 267.374" stroke="black" stroke-width="5.47" stroke-miterlimit="10"/>
<path d="M319.899 314.3L321.328 321.632C316.823 325.785 313.637 331.737 314.567 338.005C315.394 343.563 319.942 348.737 324.605 351.649C332.4 356.513 342.766 356.13 351.157 353.035C359.359 349.995 366.454 344.225 371.598 337.185C374.02 333.781 375.634 329.87 376.316 325.748V325.675" stroke="black" stroke-width="5.47" stroke-miterlimit="10"/>
<path d="M321.328 321.632L324.113 334.874" stroke="black" stroke-width="5.47" stroke-miterlimit="10"/>
<path d="M360.709 287.918L364.917 315.856C365.331 318.591 366.714 321.086 368.813 322.888C370.911 324.69 373.587 325.679 376.353 325.675C389.447 327.797 402.365 330.894 414.998 334.941C464.349 350.859 494.725 395.316 503.304 444.989C506.872 465.789 507.14 487.604 502.659 508.288C500.112 519.931 496.427 533.009 487.872 541.728C476.764 553.098 459.716 548.416 446.589 543.278C405.835 527.428 371.939 499.229 342.67 466.944C327.02 449.677 306.798 435.839 306.798 435.839" stroke="black" stroke-width="5.47" stroke-miterlimit="10"/>
<path d="M148.536 514.69C143.964 514.648 139.981 510.957 138.954 505.82C136.923 495.715 136.388 480.089 151.205 476.678C169.719 472.422 183.958 492.583 190.938 505.327C193.285 509.583 190.628 515.055 186.256 515.055L148.536 514.69Z" fill="#D7E8F0"/>
<path d="M154.647 468.099C158.577 465.484 158.638 458.666 154.781 452.871C150.925 447.075 144.613 444.497 140.682 447.113C136.751 449.728 136.691 456.547 140.548 462.341C144.404 468.137 150.716 470.715 154.647 468.099Z" fill="#D7E8F0"/>
<path d="M458.901 558.825C458.615 558.867 458.293 558.91 458.013 558.977H457.903L414.656 558.752L349.765 558.418C349.515 558.418 349.272 558.418 349.029 558.418C348.547 558.406 348.066 558.37 347.588 558.308C351.985 557.797 356.06 555.752 359.097 552.533C362.134 549.313 363.939 545.125 364.192 540.707C364.205 540.478 364.205 540.248 364.192 540.019V539.667C364.175 535.343 362.668 531.158 359.927 527.815C357.185 524.472 353.375 522.175 349.138 521.311C348.694 521.202 348.208 521.135 347.74 521.068C348.476 521.001 349.205 520.953 349.917 520.953L404.74 521.244L414.833 521.287L428.446 521.354C433.107 521.78 437.442 523.928 440.603 527.38C443.764 530.832 445.523 535.339 445.537 540.019C445.537 540.903 445.47 541.785 445.336 542.658C444.689 547.114 442.463 551.189 439.064 554.143C435.665 557.096 431.319 558.732 426.816 558.752H459.758C457.861 558.752 458.39 558.752 458.901 558.825Z" fill="white"/>
<path d="M371.178 581.436C372.413 582.679 373.882 583.664 375.501 584.334C377.12 585.004 378.856 585.345 380.608 585.34H348.761C342.681 585.34 339.361 583.856 336.941 581.436C334.454 578.939 333.054 575.561 333.044 572.037C333.044 564.741 339.027 558.758 348.761 558.758H380.608C377.978 558.754 375.407 559.53 373.219 560.989C371.032 562.448 369.327 564.524 368.32 566.952C367.313 569.381 367.051 572.054 367.564 574.633C368.079 577.211 369.346 579.579 371.207 581.436H371.178Z" fill="#D7E8F0"/>
<path d="M476.356 540.354C476.348 543.162 475.695 545.931 474.447 548.446C473.556 550.348 472.333 552.076 470.835 553.548C468.367 555.994 465.266 557.706 461.879 558.491C460.484 558.813 459.056 558.976 457.623 558.977C457.915 558.91 458.231 558.868 458.511 558.825C458 558.776 457.471 558.758 459.374 558.758H426.427C430.933 558.741 435.282 557.106 438.683 554.151C442.085 551.196 444.312 547.117 444.959 542.658C445.093 541.785 445.16 540.903 445.159 540.02C445.145 535.339 443.385 530.83 440.223 527.379C437.061 523.926 432.725 521.778 428.062 521.354L445.846 521.445L457.727 521.512C462.691 521.554 467.438 523.559 470.929 527.09C474.419 530.621 476.37 535.389 476.356 540.354Z" fill="#3B97D3"/>
<path d="M476.356 540.348C476.32 545.316 474.315 550.066 470.782 553.559C467.25 557.052 462.476 559.002 457.508 558.983L349.333 558.424C348.609 558.424 347.886 558.369 347.156 558.296C351.716 557.779 355.928 555.608 358.994 552.193C362.06 548.778 363.767 544.358 363.791 539.768C363.814 535.18 362.154 530.741 359.124 527.295C356.094 523.848 351.905 521.632 347.351 521.068C348.074 520.992 348.801 520.956 349.527 520.959L457.703 521.518C462.67 521.552 467.422 523.552 470.918 527.081C474.414 530.61 476.37 535.38 476.356 540.348Z" stroke="black" stroke-width="5.47" stroke-linecap="square" stroke-linejoin="round"/>
<path d="M445.148 540.014C445.138 544.98 443.161 549.741 439.649 553.253C436.136 556.765 431.376 558.742 426.409 558.752H349.442C348.715 558.748 347.989 558.707 347.266 558.63C351.823 558.089 356.023 555.896 359.07 552.465C362.117 549.034 363.801 544.605 363.801 540.017C363.801 535.428 362.117 530.999 359.07 527.568C356.023 524.137 351.823 521.944 347.266 521.403C347.989 521.336 348.719 521.287 349.442 521.287H426.409C431.373 521.298 436.131 523.275 439.643 526.783C443.154 530.293 445.133 535.049 445.148 540.014Z" stroke="black" stroke-width="5.47" stroke-linecap="square" stroke-linejoin="round"/>
<path d="M333.044 572.043C333.043 573.787 333.387 575.513 334.054 577.125C334.722 578.735 335.701 580.199 336.935 581.43C339.367 583.862 342.668 585.34 348.754 585.34H459.367C457.464 585.34 457.981 585.303 458.498 585.255C455.262 584.874 452.278 583.318 450.112 580.883C447.947 578.448 446.75 575.302 446.75 572.043C446.75 568.784 447.947 565.639 450.112 563.203C452.278 560.768 455.262 559.212 458.498 558.831C457.981 558.782 457.464 558.746 459.367 558.746H348.754C339.014 558.752 333.044 564.735 333.044 572.043Z" stroke="black" stroke-width="5.47" stroke-linecap="square" stroke-linejoin="round"/>
<path d="M367.274 572.043C367.283 575.567 368.686 578.944 371.178 581.436C373.67 583.929 377.047 585.332 380.571 585.34H456.954C457.465 585.34 457.982 585.303 458.499 585.255C455.262 584.874 452.278 583.318 450.113 580.883C447.947 578.448 446.751 575.302 446.751 572.043C446.751 568.784 447.947 565.639 450.113 563.203C452.278 560.768 455.262 559.212 458.499 558.831C457.982 558.782 457.465 558.746 456.954 558.746H380.571C377.048 558.756 373.671 560.16 371.18 562.651C368.688 565.143 367.284 568.52 367.274 572.043Z" stroke="black" stroke-width="5.47" stroke-linecap="square" stroke-linejoin="round"/>
<path d="M243.455 470.592H209.334C207.773 470.59 206.246 470.132 204.94 469.277C203.634 468.423 202.604 467.207 201.977 465.777C201.735 465.245 201.632 464.66 201.676 464.077C201.721 463.494 201.913 462.932 202.232 462.442C202.553 461.954 202.992 461.553 203.509 461.279C204.025 461.006 204.603 460.867 205.187 460.876H241.461C239.752 463.752 240.621 467.747 243.455 470.592Z" fill="#D7E8F0"/>
<path d="M265.519 467.078C265.518 468.008 265.148 468.899 264.49 469.557C263.833 470.214 262.941 470.585 262.011 470.586H243.455C240.622 467.747 239.752 463.752 241.461 460.858H257.846C259.406 460.859 260.931 461.311 262.238 462.161C263.545 463.012 264.578 464.224 265.209 465.649C265.406 466.1 265.511 466.586 265.519 467.078Z" fill="#3B97D3"/>
<path d="M256.983 470.592C256.887 470.777 256.775 470.954 256.649 471.121C254.217 474.447 248.933 474.769 244.829 471.765C244.344 471.407 243.885 471.015 243.455 470.592C240.622 467.753 239.752 463.758 241.461 460.864C241.557 460.679 241.669 460.502 241.795 460.335C244.227 456.985 249.486 456.687 253.59 459.666C254.084 460.036 254.55 460.443 254.983 460.882C257.792 463.709 258.667 467.68 256.983 470.592Z" fill="white"/>
<path d="M274.098 488.498C274.091 489.428 273.717 490.319 273.056 490.975C272.395 491.631 271.502 492 270.571 492H234.766C236.493 489.093 235.629 485.129 232.79 482.272H266.425C267.986 482.272 269.514 482.727 270.822 483.581C272.129 484.435 273.159 485.651 273.787 487.081C273.987 487.527 274.093 488.009 274.098 488.498Z" fill="#3B97D3"/>
<path d="M234.768 492H217.92C216.361 492.001 214.834 491.549 213.527 490.698C212.219 489.847 211.188 488.635 210.557 487.209C210.358 486.762 210.253 486.281 210.247 485.792C210.246 485.332 210.336 484.876 210.512 484.451C210.688 484.026 210.946 483.64 211.271 483.314C211.596 482.989 211.983 482.731 212.408 482.555C212.833 482.379 213.289 482.289 213.749 482.29H232.792C235.631 485.129 236.513 489.093 234.768 492Z" fill="#D7E8F0"/>
<path d="M234.768 492C234.688 492.191 234.584 492.371 234.458 492.535C232.026 495.879 226.761 496.183 222.663 493.197C222.167 492.828 221.699 492.421 221.264 491.981C218.449 489.142 217.586 485.178 219.27 482.253C219.367 482.066 219.479 481.887 219.604 481.718C222.036 478.393 227.32 478.07 231.418 481.08C231.905 481.434 232.365 481.827 232.792 482.253C235.631 485.129 236.513 489.093 234.768 492Z" fill="white"/>
<path d="M246.696 513.261H225.258C223.699 513.26 222.174 512.806 220.867 511.956C219.561 511.106 218.528 509.895 217.895 508.47C217.654 507.937 217.551 507.351 217.596 506.767C217.642 506.183 217.833 505.62 218.154 505.129C218.475 504.639 218.914 504.237 219.431 503.962C219.947 503.685 220.526 503.545 221.112 503.552H244.702C243.012 506.464 243.881 510.422 246.696 513.261Z" fill="#3B97D3"/>
<path d="M281.437 509.784C281.432 510.708 281.061 511.594 280.404 512.246C279.748 512.898 278.86 513.263 277.935 513.261H246.696C243.881 510.422 243.011 506.458 244.701 503.533H273.764C275.326 503.533 276.853 503.989 278.161 504.842C279.468 505.697 280.499 506.913 281.127 508.343C281.327 508.797 281.433 509.287 281.437 509.784Z" fill="#D7E8F0"/>
<path d="M260.225 513.261C260.128 513.448 260.016 513.627 259.891 513.796C257.459 517.14 252.2 517.444 248.096 514.459C247.603 514.088 247.138 513.682 246.703 513.243C243.888 510.404 243.019 506.44 244.709 503.515C244.802 503.327 244.912 503.148 245.038 502.98C247.47 499.654 252.753 499.369 256.857 502.342C257.345 502.696 257.804 503.088 258.231 503.515C261.064 506.391 261.928 510.379 260.225 513.261Z" fill="white"/>
<path d="M98.2578 319.425L98.7929 319.577L98.5922 320.355C98.4651 320.051 98.3539 319.74 98.2578 319.425Z" fill="#353642"/>
<path d="M193.408 368.067C201.411 365.718 205.617 356.038 202.801 346.446C199.985 336.855 191.215 330.983 183.211 333.332C175.208 335.682 171.003 345.362 173.818 354.954C176.634 364.546 185.405 370.417 193.408 368.067Z" fill="#D7E8F0"/>
</svg>
