<svg width="46" height="46" viewBox="0 0 46 46" fill="none" xmlns="http://www.w3.org/2000/svg">
<path d="M40.8889 0H5.11111C2.3 0 0 2.3 0 5.11111V40.8889C0 43.7 2.3 46 5.11111 46H40.8889C43.7 46 46 43.7 46 40.8889V5.11111C46 2.3 43.7 0 40.8889 0ZM40.8889 40.8889H5.11111V5.11111H40.8889V40.8889Z" fill="#2EB67D"/>
<path d="M15.3328 23H10.2217V35.7778H15.3328V23Z" fill="#2EB67D"/>
<path d="M35.7781 10.2222H30.667V35.7777H35.7781V10.2222Z" fill="#2EB67D"/>
<path d="M25.5554 28.1108H20.4443V35.7775H25.5554V28.1108Z" fill="#2EB67D"/>
<path d="M25.5554 17.8892H20.4443V23.0003H25.5554V17.8892Z" fill="#2EB67D"/>
</svg>